<?xml version="1.0" encoding="UTF-8"?>
<svg id="Layer_2" data-name="Layer 2" xmlns="http://www.w3.org/2000/svg" xmlns:xlink="http://www.w3.org/1999/xlink" viewBox="0 0 316.39 313.09">
  <defs>
    <style>
      .cls-1 {
        fill: #5da93e;
      }

      .cls-2 {
        fill: #226325;
      }

      .cls-3 {
        fill: #459736;
      }

      .cls-4 {
        fill: url(#linear-gradient-2);
      }

      .cls-5 {
        fill: #abc844;
      }

      .cls-6 {
        fill: #894b29;
      }

      .cls-7 {
        fill: #fff;
      }

      .cls-8 {
        fill: #308535;
      }

      .cls-9 {
        fill: #b28b51;
      }

      .cls-10 {
        fill: #711510;
      }

      .cls-11 {
        fill: #5c9a40;
      }

      .cls-12 {
        fill: url(#linear-gradient-4);
      }

      .cls-13 {
        fill: #175517;
      }

      .cls-14 {
        fill: #2a7b2b;
      }

      .cls-15 {
        fill: #915d29;
      }

      .cls-16 {
        fill: url(#linear-gradient-3);
      }

      .cls-17 {
        fill: #a2c247;
      }

      .cls-18 {
        fill: url(#linear-gradient-5);
      }

      .cls-19 {
        fill: #e28469;
      }

      .cls-20 {
        fill: #8bac35;
      }

      .cls-21 {
        fill: #1a4431;
      }

      .cls-22 {
        fill: #111114;
      }

      .cls-23 {
        fill: #fdea4e;
      }

      .cls-24 {
        fill: #edaf71;
      }

      .cls-25 {
        fill: #bbebf6;
      }

      .cls-26 {
        fill: #4e2a1b;
      }

      .cls-27 {
        fill: #c47028;
      }

      .cls-28 {
        fill: #9e2f30;
      }

      .cls-29 {
        fill: #33752d;
      }

      .cls-30 {
        fill: #e6a19e;
      }

      .cls-31 {
        fill: #3b8a34;
      }

      .cls-32 {
        fill: #f0b881;
      }

      .cls-33 {
        fill: #9d3518;
      }

      .cls-34 {
        fill: #cda86b;
      }

      .cls-35 {
        fill: #d02523;
      }

      .cls-36 {
        fill: #a8c3d9;
      }

      .cls-37 {
        fill: #e69448;
      }

      .cls-38 {
        fill: #c92544;
      }

      .cls-39 {
        fill: #58311d;
      }

      .cls-40 {
        fill: #dc8953;
      }

      .cls-41 {
        fill: url(#linear-gradient);
      }

      .cls-42 {
        fill: #b7241b;
      }

      .cls-43 {
        fill: #e06b78;
      }

      .cls-44 {
        fill: #eca576;
      }

      .cls-45 {
        fill: #1c7653;
      }
    </style>
    <linearGradient id="linear-gradient" x1="273.6" y1="776.83" x2="281.12" y2="804.49" gradientTransform="translate(0 978.19) scale(1 -1)" gradientUnits="userSpaceOnUse">
      <stop offset="0" stop-color="#216728"/>
      <stop offset="1" stop-color="#2c8938"/>
    </linearGradient>
    <linearGradient id="linear-gradient-2" x1="197.1" y1="936.34" x2="115.11" y2="876.17" gradientTransform="translate(0 978.19) scale(1 -1)" gradientUnits="userSpaceOnUse">
      <stop offset="0" stop-color="#654127"/>
      <stop offset="1" stop-color="#7d5a36"/>
    </linearGradient>
    <linearGradient id="linear-gradient-3" x1="159.5" y1="815.54" x2="162.88" y2="839.56" gradientTransform="translate(0 978.19) scale(1 -1)" gradientUnits="userSpaceOnUse">
      <stop offset="0" stop-color="#c07139"/>
      <stop offset="1" stop-color="#cd8c4e"/>
    </linearGradient>
    <linearGradient id="linear-gradient-4" x1="188.7" y1="842.7" x2="176.19" y2="837.21" gradientTransform="translate(0 978.19) scale(1 -1)" gradientUnits="userSpaceOnUse">
      <stop offset="0" stop-color="#030300"/>
      <stop offset="1" stop-color="#121923"/>
    </linearGradient>
    <linearGradient id="linear-gradient-5" x1="160.27" y1="723.29" x2="155.37" y2="747.5" gradientTransform="translate(0 978.19) scale(1 -1)" gradientUnits="userSpaceOnUse">
      <stop offset="0" stop-color="#690d0d"/>
      <stop offset="1" stop-color="#4f2122"/>
    </linearGradient>
  </defs>
  <g id="Layer_1-2" data-name="Layer 1">
    <path class="cls-20" d="M287.19,241.01l4.28.13c-12.41,21.36-30.92,37.66-51.68,50.64l-1.76-16.62c7.18-5.99,16.25-10.7,24.06-15.96,8.58-5.77,16.62-12.28,25.1-18.19Z"/>
    <path class="cls-5" d="M241.43,233.12l1.76-3.68c8.72,1.27,17.81,3.48,26.22,6.12,5.85,1.83,11.8,4.16,17.79,5.45-8.48,5.91-16.52,12.41-25.1,18.19-7.81,5.26-16.88,9.97-24.06,15.96-1.01-5.41-2.26-10.27-5.57-14.79l-.17-.44v-1.36c2.69-3.83,8.05-20.43,9.14-25.45Z"/>
    <path class="cls-25" d="M13.94,221.49c-3.24-6.19-5.22-13.54-7.15-20.25-8.61-29.89-9.45-58.17-.1-88.07C19.75,71.43,46.83,37.59,85.7,17.36,122.99-2.05,168.01-5.04,207.89,7.67c1.21.39,2.42.79,3.63,1.21,1.2.42,2.4.85,3.6,1.3,1.19.45,2.38.91,3.56,1.39,1.18.48,2.36.97,3.53,1.48,1.17.51,2.33,1.03,3.49,1.57,1.16.54,2.31,1.09,3.45,1.65,1.14.57,2.28,1.14,3.41,1.74,1.13.59,2.25,1.2,3.36,1.82,1.11.62,2.22,1.26,3.32,1.9,1.1.65,2.19,1.31,3.27,1.99,1.08.68,2.15,1.36,3.22,2.07,1.06.7,2.12,1.42,3.17,2.15,1.05.73,2.08,1.47,3.11,2.22,1.03.75,2.05,1.52,3.06,2.3,1.01.78,2.01,1.57,3,2.37s1.97,1.62,2.94,2.45c.97.83,1.93,1.67,2.88,2.52.95.85,1.89,1.72,2.81,2.59.93.88,1.84,1.76,2.75,2.66.91.9,1.8,1.81,2.68,2.73.88.92,1.75,1.85,2.61,2.79.86.94,1.71,1.89,2.55,2.86.84.96,1.66,1.94,2.47,2.92.81.98,1.61,1.98,2.4,2.98.79,1,1.56,2.02,2.32,3.04.76,1.02,1.51,2.05,2.25,3.09.74,1.04,1.46,2.09,2.17,3.15.71,1.06,1.41,2.13,2.09,3.2.68,1.08,1.36,2.16,2.01,3.25.66,1.09,1.3,2.19,1.93,3.3.63,1.11,1.25,2.23,1.85,3.35.6,1.12,1.19,2.25,1.77,3.39,20.07,39.15,23.14,77.68,9.53,119.74-2.76,8.54-11.23,29.38-16.61,36.3l-4.28-.13c-5.99-1.29-11.94-3.62-17.79-5.45-8.41-2.64-17.5-4.85-26.22-6.12l-1.76,3.68c-1.09,5.02-6.45,21.62-9.14,25.45v1.36s.18.44.18.44c3.31,4.52,4.57,9.38,5.57,14.79l1.76,16.62-4.67,2.67c-4.43,2.78-9.5,4.81-14.3,6.86l-5.71,2.12c-15.32,6.1-39.87,9.53-56.31,9.67-16.86.1-34.93-1.86-50.99-7.23-4.29-1.38-8.47-3.04-12.67-4.66-3.96-1.67-7.83-3.52-11.62-5.55-3.79-2.03-7.48-4.23-11.06-6.6-25.77-16.15-45.53-40.26-58.51-67.56Z"/>
    <path class="cls-21" d="M242.69,223.11c.85.45,1.68.86,2.46,1.41l-.1.42-1.86,4.5-1.76,3.68c-.14-1.74-.15-2.16-1.14-3.68l.3-.94,1.96-5.08.14-.32Z"/>
    <path class="cls-44" d="M169.69,211.24c-.09-1.67-.75-3.19-.87-4.93.56-1.44,1.02-2.08,2.13-3.16.23,2.54,3.2,5.66,4.96,7.47l-.24.26c-1.76.21-2.89.21-4.59-.44-.24-.09-.48-.2-.73-.3l-.11.97-.56.12Z"/>
    <path class="cls-2" d="M272.86,166.2l1.58,2.1c-1.4,2.8-2.69,5.72-4.67,8.17l-.97.55-1.96-1.34c1.45-3.3,3.92-6.54,6.01-9.48Z"/>
    <path class="cls-8" d="M36.91,155.51c.89-.8,1.65-1.38,2.72-1.93,1.62,3.15,3.13,6.88,5.38,9.61-.83.72-.58.35-.92.98l-1.6.18c-1.74-3.03-3.63-5.94-5.58-8.84Z"/>
    <path class="cls-7" d="M135.3,200.98c3.03.31,5.14,1.03,7.73,2.6l.74.37c-.15,1.74.03,2.61-1.1,3.98-1.07.17-2.05.32-3.14.33l-1.58,1.69c-.17-.11-.34-.23-.51-.34-1.47-1.02-2.25-1.11-4.03-1.13.14-.17.25-.36.42-.5.59-.5,1.31-.78,1.9-1.34.74-.7,1.08-1.15,2.1-1.46.23-.07.48-.09.71-.18.88-.33,1.22-1.09,1.62-1.87-1.04-1.32-3.15-.73-4.52-1.8-.12-.1-.22-.22-.33-.34Z"/>
    <path class="cls-2" d="M65.75,208.55c.71-.5,1.38-.8,2.19-1.11l1.14.82c.37,2.42.75,4.82,1.3,7.2.45,1.73,1.18,3.6,1.45,5.36l.72,1.67c.68,1.75,1.34,3.52,2.05,5.26v.35s-2.39,1.01-2.39,1.01l-.44-.6c-1.55-3.92-2.7-7.98-3.94-12.01-.25-1.51-.82-2.93-1.31-4.37l-.16-.64-.61-2.93Z"/>
    <path class="cls-31" d="M71.3,214.43c.57-1.39,1.21-2.66,2.07-3.89,3.51-5.02,9.19-9.52,15.34-10.47,1.76-.27,3.84-.34,5.28.85,1.2.99,1.24,1.8,1.39,3.26-.49-.4-1.04-.68-1.59-.99-1.37-.98-2.67-1.03-4.36-.81-7.65,1-14.64,12.5-17.96,12.16l-.17-.12Z"/>
    <path class="cls-2" d="M255.35,196.7l1.37,1.21c-.85,1.4-1.96,2.79-2.08,4.46l.82,1.47-.54.26c-2.26,3.83-4.16,7.88-6.12,11.86l-1.74,2.61-.85,2.04c-.3,1.32-.63,2.61-1.06,3.9-.78-.56-1.61-.97-2.46-1.41l1.28-2.45c.19-.18.39-.35.57-.54,1.59-1.69,1.35-3.69,1.36-5.85,1.36-3.15,5.66-9.25,5.2-12.49,1.17-1.19,1.61-2.33,2.2-3.87l2.06-1.2Z"/>
    <path class="cls-14" d="M226.02,192.17c7.7,3.06,14.13,7.1,17.66,15.05.99,2.23,1.52,4.73,2.22,7.05,0,2.16.23,4.16-1.36,5.85-.18.19-.38.36-.57.54-.65-1.23-.78-2.61-1.01-3.98-2.17-12.65-7.17-15.4-16.79-22.31l-.15-2.2Z"/>
    <path class="cls-31" d="M93.79,203.2c.55.31,1.11.58,1.59.99-.45,5.35-1.95,9.85-6.28,13.36-4.81,3.9-10.61,4.49-16.55,4.94l-.72-1.67c2.12-1.2,4.69-1.79,6.96-2.69,7.31-2.91,11.65-8.03,15-14.93Z"/>
    <path class="cls-31" d="M242.55,223.42c-6.3-1.79-11.85-3.53-16.51-8.51-5.06-5.4-6.34-12.68-5.95-19.84.08-1.42.15-2.1,1.18-3.08,1.72-.38,3.03-.14,4.74.18l.15,2.2c-1.46-.52-1.6-.81-3.01-.22-1.1,2.26-.1,5.54.64,7.79,1.94,5.94,5.97,12.28,11.68,15.12,1.95.97,4.02,1.3,6.15,1.61,1.14-.73.93-.78,1.33-1.99.23,1.36.35,2.74,1.01,3.98l-1.28,2.45-.14.32Z"/>
    <path class="cls-3" d="M71.3,214.43l.17.12c3.32.34,10.31-11.16,17.96-12.16,1.69-.22,3-.17,4.36.81-3.34,6.89-7.68,12.02-15,14.93-2.27.9-4.84,1.49-6.96,2.69-.27-1.75-1-3.62-1.45-5.36l.92-1.03Z"/>
    <path class="cls-11" d="M242.96,216.68c-.4,1.21-.19,1.26-1.33,1.99-2.13-.31-4.2-.64-6.15-1.61-5.71-2.84-9.74-9.18-11.68-15.12-.74-2.25-1.74-5.53-.64-7.79,1.4-.59,1.55-.3,3.01.22,9.61,6.91,14.62,9.66,16.79,22.31Z"/>
    <path class="cls-8" d="M272.86,166.2c-1.67-2.89-2.02-7.04-1.16-10.25,1.24-4.68,4.7-8.64,8.88-10.98,2.02-1.13,4.98-2.27,7.28-1.34,1.39.56,2.15,1.78,2.52,3.18,1.28,4.91-.59,10.9-3.26,15.02-2.07,3.19-4.73,5.2-8.5,6.03-1.37.3-2.77.39-4.17.44l-1.58-2.1Z"/>
    <path class="cls-14" d="M262.04,182.03c-5.84-2.48-10.87-7.72-13.26-13.52-1.89-4.58-3.14-13.25-.94-18.05.41-.89.15-.57,1.18-.95,3.62.84,7.58,3.69,10.09,6.3,6.08,6.32,6.46,13.7,6.35,21.95-.46,1.12-.93,1.75-1.76,2.62-.65.54-1.16.97-1.67,1.65Z"/>
    <path class="cls-11" d="M249.47,152.22c2.94.52,5.69,3.09,7.55,5.29,5.13,6.08,6.88,13.13,6.35,20.94-3.27-.36-6.28-2.81-8.24-5.31-4.81-6.1-6.48-13.33-5.65-20.92Z"/>
    <path class="cls-14" d="M248.8,215.97c6.86-3.06,13.02-2.77,20-.04,2.95,1.15,7.8,3.05,8.98,6.23.31.84.36,1.22.2,2.07-2.8,3.48-8.03,5.63-12.35,6.11-8.34.92-13.33-2.61-20.59-5.4l.1-.42c.42-1.29.75-2.57,1.06-3.9l.85-2.04,1.74-2.61Z"/>
    <path class="cls-8" d="M247.05,218.58c1.47.53,1.87,1.12,2.78,2.32l1.41.97c-.76.1-1.65.28-2.41.22-1.24-.1-1.81-.59-2.62-1.47l.85-2.04Z"/>
    <path class="cls-11" d="M249.83,220.9c6.4-2.92,12.37-5.2,19.39-2.41,1.31.52,2.94,1.4,3.63,2.7.63,1.18.28,1.67-.17,2.79-2.39,2.03-5.29,2.15-8.32,1.91-4.82-.38-8.8-2-13.13-4.02l-1.41-.97Z"/>
    <path class="cls-8" d="M45.01,163.19l-.04-.46c-.59-7.16.94-14.08,5.84-19.56,1.79-2.01,5.04-4.91,7.97-4.79,1.44.06,2.56.54,3.51,1.63,3.23,3.7,2.12,10.31,1.74,14.76-2.89,7.66-5.12,11.37-12.23,15.7l-.21.62-.57-.1c-1.45-2.09-2.64-4.05-3.66-6.41l-.44-.13-.48-.72c-.94.31-.53.22-1.57.36-.25.03-.5.06-.76.09.34-.63.09-.26.92-.98Z"/>
    <path class="cls-11" d="M48.44,156.54c1.34,3.32,1.59,7.02,2.85,10.15l-.99.52c-.02,1.36.74,2.2,1.49,3.25l-.21.62-.57-.1c-1.45-2.09-2.64-4.05-3.66-6.41-.58-3.33-.41-4.97,1.09-8.04Z"/>
    <path class="cls-1" d="M48.44,156.54c2.2-4.83,5.61-13.45,10.46-16l1.53.22c1.68,3.36.45,8.85-.68,12.29-1.55,4.76-4.45,10.56-8.46,13.64-1.27-3.13-1.51-6.84-2.85-10.15Z"/>
    <path class="cls-41" d="M269.78,176.46c4.8-2.78,9.38-4.03,14.92-2.47,5.25,1.48,9.94,5.18,12.92,9.7l.38.56c-4.87,4.29-10.56,7.06-17.21,6.76-6.4-.29-10.54-3.85-14.84-8.13-2.47,3.85-4.97,7.67-7.23,11.64l-1.99,3.39-1.37-1.21c.1-1.4.3-2.22.92-3.52,1.99-3.68,4.09-7.33,5.78-11.15.51-.69,1.02-1.11,1.67-1.65.83-.87,1.3-1.5,1.76-2.62l1.38-2.09,1.96,1.34.97-.55Z"/>
    <path class="cls-2" d="M266.85,175.67l1.96,1.34c-1.04,1.49-1.72,2.62-3.42,3.38h-1.68c.83-.88,1.3-1.51,1.76-2.63l1.38-2.09Z"/>
    <path class="cls-31" d="M281.98,177.81c.21-.07.41-.16.63-.2,4.2-.73,9.35,3.51,12.55,5.81-3.1,1.57-6.2,3.02-9.41,4.37-3.01.34-5.29-.02-8.2-.88-1.66-1.63-4.24-3.68-4.67-6.06-.15-.83.24-1.02.7-1.65,2.55-1.21,5.62-1.16,8.4-1.39Z"/>
    <path class="cls-31" d="M251.1,201.78c-3.18-.52-6.58-2.29-9.07-4.31-5.84-4.72-8.95-11.76-9.81-19.07-.31-2.62-.41-5.67,1.3-7.82,1.53-.43,2-.16,3.51.26,6.47,1.8,11.41,5.77,14.75,11.62,1.99,3.49,2.7,7.31,4.5,10.73-.62,1.3-.81,2.12-.92,3.52l-2.06,1.2c-.59,1.54-1.03,2.68-2.2,3.87Z"/>
    <path class="cls-14" d="M237.02,170.83c6.47,1.8,11.41,5.77,14.75,11.62,1.99,3.49,2.7,7.31,4.5,10.73-.62,1.3-.81,2.12-.92,3.52l-2.06,1.2c0-.12-.02-.24-.02-.37-.05-1.02-.15-2.03-.31-3.04-.16-1.01-.36-2.01-.62-2.99-.26-.99-.56-1.96-.92-2.91-.36-.96-.76-1.89-1.21-2.81-.94-1.9-2.9-3.1-3.06-5.18,3.04,1.57,4.19,7.21,5.64,10.17.12-.25.22-.52.37-.77.53-.87.66-.47.54-1.34-.2-1.53-1.17-3.1-1.87-4.46-3.5-6.83-8.33-8.62-14.09-12.83l-.72-.54Z"/>
    <path class="cls-8" d="M258.72,194.52c9.64-2.23,14.9-3.14,23.78,2.38,1.94,1.21,4.57,3.25,5.16,5.61.34,1.37.22,2.53-.55,3.72-2.13,3.31-7.27,4.56-10.94,5.19-5.74.98-12.2.57-17.1-2.89-1.66-1.17-3.16-2.63-4.14-4.43l.54-.26-.82-1.47c.13-1.67,1.23-3.06,2.08-4.46l1.99-3.39Z"/>
    <path class="cls-14" d="M67.22,157.88c2.56-1.63,5.88-4.15,9.11-3.57,1.25.23,2.19.7,2.88,1.8,2.02,3.24.78,8.6-.3,12-1.39,4.35-3.49,7.87-6.99,10.88-2.6,1.58-5.02,2.87-8.06,3.43-1.25.79-1.92.98-3.35,1.13l-.78.61-.75-.2-.78-1.92c-2.35-3.54-4.44-7.32-6.64-10.96l.21-.62c7.12-4.32,9.35-8.04,12.23-15.7.78,1.38-.27,4.03-.62,5.62,1.16-1.16,2.29-2.3,3.6-3.29l.22.79Z"/>
    <path class="cls-31" d="M59.05,172.56c-.02,2.25-.03,4.07.86,6.18l.67.44c.55-.71.68-1.99.77-2.89.26,1.47.1,2.17,1.38,3.09.11.08.24.14.36.21l-1.87.07-.41.49c.92,1.11,1.8,1.62,3.04,2.28-1.25.79-1.92.98-3.35,1.13l-.78.61-.75-.2-.78-1.92c.79-3.02.2-6.35.83-9.49Z"/>
    <path class="cls-7" d="M64.02,154.76c.78,1.38-.27,4.03-.62,5.62,1.16-1.16,2.29-2.3,3.6-3.29l.22.79c-4.07,4.35-7.23,8.61-8.18,14.67-.64,3.14-.04,6.47-.83,9.49-2.35-3.54-4.44-7.32-6.64-10.96l.21-.62c7.12-4.32,9.35-8.04,12.23-15.7Z"/>
    <path class="cls-11" d="M61.35,176.29c.92-6.57,5.47-14.56,10.96-18.53.8-.58,1.58-.8,2.55-.98,1.18.38,2.11.7,2.71,1.9,1.03,2.05.08,4.54-.8,6.46-2.77,6.02-7.59,11.67-13.68,14.45-.12-.07-.25-.13-.36-.21-1.29-.91-1.12-1.62-1.38-3.09Z"/>
    <path class="cls-31" d="M36.91,155.51c-3.53,1.06-7.67.5-10.89-1.27-4.34-2.38-7.48-6.74-8.88-11.44-1.14-3.83-1.57-8.95.57-12.54.9-1.51,2.23-2.57,3.97-2.93,3.92-.81,8.38,1.9,11.39,4.14,4.25,3.17,7.01,8.68,7.74,13.86.37,2.58.39,6.06-1.19,8.25-1.07.54-1.83,1.13-2.72,1.93Z"/>
    <path class="cls-1" d="M20.59,130.05c.21,0,.41-.02.62-.02,4.11.02,7.68,2.06,10.41,5.06,4.69,5.15,6.32,11.65,5.98,18.43-.22-.03-.44-.06-.66-.1-5.62-.94-11.11-4-14.27-8.81-3.06-4.65-3.1-9.28-2.08-14.56Z"/>
    <path class="cls-31" d="M30.47,182.84c-3.57-.13-6.84-.47-10.29-1.54-2.84-.89-6.06-2.39-7.38-5.25-.73-1.59-.66-3.35-.03-4.96,1.31-3.34,4.72-5.69,7.9-7.07,7.35-3.18,14.56-2.41,21.83.32l1.6-.18c.25-.03.51-.06.76-.09,1.04-.14.63-.05,1.57-.36l.48.72.44.13c1.02,2.35,2.21,4.32,3.66,6.41-.75.76-1.29,1.23-1.78,2.18-4.12,5.34-8.81,8.51-15.64,9.43-1.04.14-2.08.2-3.12.25Z"/>
    <path class="cls-1" d="M29.66,164.7c2.22-.12,4.26.02,6.45.39,3.84.65,8.21,1.32,10.62,4.7.24,1.28.39,1.85-.4,3.02-2.33,3.43-8.85,4.16-12.62,4.63-4,.52-10.57.34-14.46-.83-1.65-.49-2.5-1.1-3.38-2.64.01-1.15-.07-1.71.56-2.71,2.4-3.83,9.03-5.62,13.25-6.57Z"/>
    <path class="cls-8" d="M72.94,180.26c3.47-2.62,8.15-5.81,12.73-5.15,1.55.22,2.94,1.01,3.76,2.36,1.61,2.61.96,6.22.14,8.98-1.7,5.69-5.25,10.6-10.56,13.41-2.01,1.06-9.36,2.27-10.24,3.8.1,1.53.28,3.08.3,4.61l-1.14-.82c-.81.32-1.48.62-2.19,1.11-1.22-4.42-3.02-8.67-4.69-12.93l-.06-1.53c-.99-1.2-1.42-2.87-1.97-4.32l-.28-.8c-.1-1.83-1.28-3.2-1.17-4.96l1.41-.05.75.2.78-.61c1.42-.15,2.1-.34,3.35-1.13,3.04-.55,5.46-1.85,8.06-3.43l1.02,1.26Z"/>
    <path class="cls-29" d="M58.99,183.96l.75.2c1.72,3.79,3.03,7.85,4.89,11.54.35,2.49.64,9.09,2.45,10.62.48-1,.79-2.01,1.7-2.68.1,1.53.28,3.08.3,4.61l-1.14-.82c-.81.32-1.48.62-2.19,1.11-1.22-4.42-3.02-8.67-4.69-12.93l-.06-1.53c-.99-1.2-1.42-2.87-1.97-4.32l-.28-.8c-.1-1.83-1.28-3.2-1.17-4.96l1.41-.05Z"/>
    <path class="cls-36" d="M63.86,182.42c3.04-.55,5.46-1.85,8.06-3.43l1.02,1.26c-4.95,4.78-7.28,8.49-8.31,15.44-1.87-3.69-3.17-7.75-4.89-11.54l.78-.61c1.42-.15,2.1-.34,3.35-1.13Z"/>
    <path class="cls-3" d="M84.91,178.56c.64.11.22,0,1.22.51.26,1.43.41,2.84.55,4.28-2.65,5.62-5.59,9.2-11.16,12.07-1.9.98-3.59,1.69-5.18,3.17l-.68.52-.75-.15c-.07-.45-.13-.68-.04-1.18,1.53-8.47,8.94-15.27,16.06-19.22Z"/>
    <path class="cls-1" d="M61.06,195.62c1.67,4.26,3.47,8.51,4.69,12.93l.61,2.93.16.64c.49,1.45,1.05,2.86,1.31,4.37-3.39,5.22-7.49,8.28-13.73,9.52-4.24.84-8.67.69-12.97.43-3.23-1.33-6.39-2.5-9.18-4.66-1.19-1.28-1.27-2.6-1.44-4.27l.18-.34c-.86-.03-1.71-.08-2.57-.14,3.45-2.14,3.05-4.04,5.52-6.29,2.27-2.05,5.6-3.3,8.26-4.8-.59-.9-7.71-.15-9.66-1.62-.15-.11-.27-.25-.4-.38,3.21.48,6.37.76,9.62.84,8.88.21,13.47-3.3,19.59-9.17Z"/>
    <path class="cls-31" d="M66.52,212.12c.49,1.45,1.05,2.86,1.31,4.37-3.39,5.22-7.49,8.28-13.73,9.52-4.24.84-8.67.69-12.97.43-3.23-1.33-6.39-2.5-9.18-4.66.83-.45,1.67-.71,2.57-1.02,7.21,2.99,17.21,3.15,24.45.17,5.08-2.09,5.55-4.22,7.55-8.81Z"/>
    <path class="cls-31" d="M61.06,195.62c1.67,4.26,3.47,8.51,4.69,12.93l.61,2.93-.4.24c-1.03-.55-1.82-1.2-2.71-1.94-.24.06-.48.12-.72.18-1.94.44-4.38-.03-6.37-.13-10.95-.54-15.2,1.38-21.31,10.43-.11.16-.22.33-.33.5-.9.31-1.73.57-2.57,1.02-1.19-1.28-1.27-2.6-1.44-4.27l.18-.34c-.86-.03-1.71-.08-2.57-.14,3.45-2.14,3.05-4.04,5.52-6.29,2.27-2.05,5.6-3.3,8.26-4.8-.59-.9-7.71-.15-9.66-1.62-.15-.11-.27-.25-.4-.38,3.21.48,6.37.76,9.62.84,8.88.21,13.47-3.3,19.59-9.17Z"/>
    <path class="cls-7" d="M61.06,195.62c1.67,4.26,3.47,8.51,4.69,12.93l.61,2.93-.4.24c-1.03-.55-1.82-1.2-2.71-1.94-4.95-3.6-11.77-4.69-17.73-3.66-4.71.82-9.88,3.4-12.63,7.44-.45.66-.84,1.35-1.25,2.03l-.94,1.59c-.86-.03-1.71-.08-2.57-.14,3.45-2.14,3.05-4.04,5.52-6.29,2.27-2.05,5.6-3.3,8.26-4.8-.59-.9-7.71-.15-9.66-1.62-.15-.11-.27-.25-.4-.38,3.21.48,6.37.76,9.62.84,8.88.21,13.47-3.3,19.59-9.17Z"/>
    <path class="cls-38" d="M133.4,208.47c1.78.02,2.57.11,4.03,1.13.17.12.34.23.51.34,4.57,6.08.6,16.22,2.44,23.31-1.87.38-3.62.38-5.52.37.72,4.35.89,8.71.91,13.12l-.25.47c-1.79.82-5.81-.15-7.8-.64-5.62-1.4-7.96-5.43-10.74-10.09-.75-1.94-.63-5.35-.82-7.52.06-4.11.17-8.22.09-12.33.12-.61.21-1.41.43-2,1.64-4.37,12.53-4.11,16.71-6.16Z"/>
    <path class="cls-8" d="M51,170.98l.57.1c2.2,3.64,4.29,7.42,6.64,10.96l.78,1.92-1.41.05c-.12,1.76,1.07,3.13,1.17,4.96l.28.8c.54,1.45.97,3.12,1.97,4.32l.06,1.53c-6.12,5.87-10.71,9.38-19.59,9.17-3.24-.08-6.41-.36-9.62-.84-2.61-1.14-5.7-2.2-7.72-4.28-1.17-1.2-1.84-2.5-1.7-4.22.3-3.54,4.64-6.6,7.23-8.58l.32-.94c1.28-.75,2.4-1.41,3.87-1.69.94-.18,1.54-.37,2.37-.89l-.57-.3c-2.75.76-5.33.55-8.13.36.86-.07,1.67-.1,2.5-.38.15-.05.29-.12.44-.18,1.04-.05,2.09-.11,3.12-.25,6.83-.92,11.51-4.09,15.64-9.43.49-.95,1.03-1.42,1.78-2.18Z"/>
    <path class="cls-7" d="M51,170.98l.57.1c2.2,3.64,4.29,7.42,6.64,10.96l.78,1.92-1.41.05c-.12,1.76,1.07,3.13,1.17,4.96l-.82-1.03c-2.16-.39-4.53-2.38-6.59-3.28-7.3-3.2-14.74-.5-21.67,2.21l.32-.94c1.28-.75,2.4-1.41,3.87-1.69.94-.18,1.54-.37,2.37-.89l-.57-.3c-2.75.76-5.33.55-8.13.36.86-.07,1.67-.1,2.5-.38.15-.05.29-.12.44-.18,1.04-.05,2.09-.11,3.12-.25,6.83-.92,11.51-4.09,15.64-9.43.49-.95,1.03-1.42,1.78-2.18Z"/>
    <path class="cls-45" d="M51,170.98l.57.1c2.2,3.64,4.29,7.42,6.64,10.96l.78,1.92-1.41.05c-.12,1.76,1.07,3.13,1.17,4.96l-.82-1.03c-2.4-5.18-5.43-10.1-8.71-14.78.49-.95,1.03-1.42,1.78-2.18Z"/>
    <path class="cls-1" d="M61,194.09c-2.77.76-4.9,2.78-7.39,4.15-5.06,2.79-12.35,2.79-17.92,1.72-3.52-.68-8.49-1.85-10.6-4.94l.48-.77c7.37-3.27,18.28-9.28,26.59-6.25,2.08.76,3.65,2.38,6.03,1.95.29-.05.57-.12.86-.18.54,1.45.97,3.12,1.97,4.32Z"/>
    <path class="cls-24" d="M143.77,203.94l.27.13c.23,2.35.43,2.49,2,4.34,1.17.89,2.22,1.99,3.75,1.99.23,0,.45,0,.68,0,.18,0,.35-.01.53-.02.69.52,1.16.82,1.96,1.17.6-.39,1.19-.72,1.83-1.06,2.02.88,3.99,1.52,6.13,2.08.58-.36.23-.09.92-.95l-.87.44-1.66-2.33c1.72-.33,3.03.21,4.6.87,1.01.43,1.53.67,2.63.8l.6-2.02.79-.17,1.77,2.02.56-.12.11-.97c.24.1.48.2.73.3,1.7.65,2.83.64,4.59.44-.03,2.13-.15,4.3-.02,6.43.43,2.8.42,5.47,1.88,7.94.12.21.23.42.35.63l.23.39c-.1,2.18-.45,4.5.35,6.56l1.59,1.26-.34.3-4.38-.54-2.4.12c-5.26-1.4-23.81-.73-30.49-.77l-2.07.04c-1.84-7.09,2.13-17.23-2.44-23.31l1.58-1.69c1.09-.01,2.07-.16,3.14-.33,1.13-1.37.95-2.24,1.1-3.98Z"/>
    <path class="cls-44" d="M148.37,220.15c-2.24-.61-5.16-1.72-6.64-3.6-.91-1.15-.8-1.29-.61-2.66,1.55,1.75,3.24,2.72,5.18,3.94,1.21.76,1.75.89,2.07,2.32Z"/>
    <path class="cls-42" d="M175.66,217.32c.43,2.8.42,5.47,1.88,7.94.12.21.23.42.35.63l.23.39c-.1,2.18-.45,4.5.35,6.56l1.59,1.26-.34.3-4.38-.54c.28-5.5.25-11.04.32-16.55Z"/>
    <path class="cls-32" d="M143.77,203.94l.27.13c.23,2.35.43,2.49,2,4.34-.65,1.86-.7,2.91.12,4.8.09.22.21.43.31.65l-1.27.94c-.91-.51-1.4-1.03-2.06-1.83-1.06.13-1.18.24-2.02.92.43-1.93-.81-3.9-1.59-5.63,1.09-.01,2.07-.16,3.14-.33,1.13-1.37.95-2.24,1.1-3.98Z"/>
    <path class="cls-32" d="M146.03,208.41c1.17.89,2.22,1.99,3.75,1.99.23,0,.45,0,.68,0,.18,0,.35-.01.53-.02.69.52,1.16.82,1.96,1.17,1.54.91,2.82,1.4,3.45,3.23.36,1.04.19,1.22-.33,2.1-1.39.74-2.9,1.34-4.5.91-1.06-.28-1.65-.66-2.22-1.63-.35-.61-.47-1.62-.63-2.31l-.22-.9-.14-.61h-.64s-1.27,1.51-1.27,1.51c-.1-.22-.22-.43-.31-.65-.82-1.89-.77-2.94-.12-4.8Z"/>
    <path class="cls-39" d="M195.72,115.41c3.07-1.45,33.77-4.1,37.98-3.68l.58,1.76c2.2,21.4-1.6,48.45-15.59,65.53-8.78,10.72-22.01,18.65-35.63,21.18-3.62.68-8.88.74-12,2.54l-.1.4c-1.12,1.07-1.57,1.71-2.13,3.16.12,1.74.78,3.26.87,4.93l-1.77-2.02-.79.17-.6,2.02c-1.1-.14-1.62-.37-2.63-.8-1.57-.67-2.88-1.21-4.6-.87l1.66,2.33.87-.44c-.69.86-.34.59-.92.95-2.14-.55-4.1-1.19-6.13-2.08-.63.34-1.23.66-1.83,1.06-.8-.35-1.27-.65-1.96-1.17-.18,0-.35.01-.53.02-.23,0-.45,0-.68,0-1.53,0-2.58-1.1-3.75-1.99-1.57-1.84-1.76-1.99-2-4.34l-.27-.13-.74-.37c1.25-1.9,1.02-4.15,1.08-6.34l1.84.16,3.23.23,1.39.07c5.55.65,11.77-.4,17.14-1.81,11.7-3.07,22.74-11.33,28.76-21.88,1.72-3.01,4.69-8.19,3.76-11.62.19-.27.41-.52.59-.8,1.02-1.58,1.78-4.03,1.35-5.9-.53-2.37-2.13-3.4-4.05-4.68,3.08-12.84-2.99-16.87-7.79-26.95l-.36-.77c0-.14,0-.29-.03-.43-.24-1.29-1.35-2.62-2.36-3.42-2.97-2.37-6.54-2.3-10.09-1.83l-.35-.92c6.2-.23,12.36-1.05,18.56-1.26Z"/>
    <path class="cls-37" d="M177.16,116.67c6.2-.23,12.36-1.05,18.56-1.26,2.78,8.14,8.52,13.52,12.09,21.03,1.08,2.28,1.62,4.91,2.26,7.35,1.74-2.57,3.61-6.14,6.83-6.99,1.62-.43,3.78.13,5.1,1.12,1.82,1.35,2.62,3.57,2.79,5.77.03.44.04.88.03,1.32-.01.44-.04.88-.1,1.32-.05.44-.13.87-.22,1.3-.1.43-.21.85-.35,1.27-.14.42-.29.83-.47,1.23-.18.4-.37.8-.59,1.18-.22.38-.45.76-.7,1.12-.25.36-.52.71-.81,1.05-1.5,1.75-4.04,3.52-6.41,3.68-1.68.12-3.59-.3-5.26-.54-1.22,2.02-.98,5.32-1.58,7.65-2.4,9.23-8.74,18.71-16.36,24.43-1.87,1.39-3.83,2.64-5.88,3.76-2.05,1.12-4.16,2.08-6.35,2.9-2.67.97-7.83,1.59-9.96,3.24-1.13.87-1.1,1.3-1.24,2.61l.64,1.18c.64.16,1.22.32,1.87.37l-.1.4c-1.12,1.07-1.57,1.71-2.13,3.16.12,1.74.78,3.26.87,4.93l-1.77-2.02-.79.17-.6,2.02c-1.1-.14-1.62-.37-2.63-.8-1.57-.67-2.88-1.21-4.6-.87l1.66,2.33.87-.44c-.69.86-.34.59-.92.95-2.14-.55-4.1-1.19-6.13-2.08-.63.34-1.23.66-1.83,1.06-.8-.35-1.27-.65-1.96-1.17-.18,0-.35.01-.53.02-.23,0-.45,0-.68,0-1.53,0-2.58-1.1-3.75-1.99-1.57-1.84-1.76-1.99-2-4.34l-.27-.13-.74-.37c1.25-1.9,1.02-4.15,1.08-6.34l1.84.16,3.23.23,1.39.07c5.55.65,11.77-.4,17.14-1.81,11.7-3.07,22.74-11.33,28.76-21.88,1.72-3.01,4.69-8.19,3.76-11.62.19-.27.41-.52.59-.8,1.02-1.58,1.78-4.03,1.35-5.9-.53-2.37-2.13-3.4-4.05-4.68,3.08-12.84-2.99-16.87-7.79-26.95l-.36-.77c0-.14,0-.29-.03-.43-.24-1.29-1.35-2.62-2.36-3.42-2.97-2.37-6.54-2.3-10.09-1.83l-.35-.92Z"/>
    <path class="cls-27" d="M145.95,197.39l3.23.23c.26,1.26.95,2.18,1.41,3.35.41,1.06.56,1.6.08,2.66-.61-.06-1.03-.17-1.53-.55-1.86-1.43-2.88-3.41-3.21-5.69Z"/>
    <path class="cls-24" d="M144.03,204.07c3.34.78,4.27,3.04,6.9,4.8l.06,1.52c-.18,0-.35.01-.53.02-.23,0-.45,0-.68,0-1.53,0-2.58-1.1-3.75-1.99-1.57-1.84-1.76-1.99-2-4.34Z"/>
    <path class="cls-27" d="M216.17,140.93c.17.2.39.38.52.61.8,1.35.76,3.17.09,4.54-1.06,2.16-3.4,3.06-5.49,3.86-.48-.61-.59-.84-.5-1.65.3-2.72,3.46-5.68,5.38-7.36Z"/>
    <path class="cls-17" d="M116.25,216.63c.08,4.11-.03,8.22-.09,12.33.19,2.17.07,5.57.82,7.52.19,3.82.93,8.84-.08,12.5-1.45,7.57-4.23,13.77-7.24,20.83-5.15,12.07-2.71,23.44-1.86,36.06-4.29-1.38-8.47-3.04-12.67-4.66-3.96-1.67-7.83-3.52-11.62-5.55-3.79-2.03-7.48-4.23-11.06-6.6-25.77-16.15-45.53-40.26-58.51-67.56,5.28-1.82,10.95-3.84,16.58-3.98.17,1.66.25,2.98,1.44,4.27,2.79,2.16,5.95,3.33,9.18,4.66,4.3.26,8.72.41,12.97-.43,6.23-1.24,10.33-4.29,13.73-9.52,1.23,4.02,2.39,8.09,3.94,12.01l.44.6,2.4-1.01v-.35c11.85-3.38,23.79-5.97,35.87-8.43,1.94-.85,3.92-1.66,5.77-2.68Z"/>
    <path class="cls-14" d="M74.61,228.09c1.35,3.83,3.43,8.29,2.82,12.4l-.62.11c-2.61-2.96-3.53-7.8-4.6-11.5l2.4-1.01Z"/>
    <path class="cls-7" d="M67.83,216.49c1.23,4.02,2.39,8.09,3.94,12.01-7.87.07-24.42,3.24-30.75-1.38l.12-.68c4.3.26,8.72.41,12.97-.43,6.23-1.24,10.33-4.29,13.73-9.52Z"/>
    <path class="cls-24" d="M116.25,216.63c.08,4.11-.03,8.22-.09,12.33.19,2.17.07,5.57.82,7.52.19,3.82.93,8.84-.08,12.5-1.45,7.57-4.23,13.77-7.24,20.83-5.15,12.07-2.71,23.44-1.86,36.06-4.29-1.38-8.47-3.04-12.67-4.66-3.96-1.67-7.83-3.52-11.62-5.55-3.79-2.03-7.48-4.23-11.06-6.6,1.13-7.17-.84-14.95.13-22.38,2.49-19,23.53-36.29,37.9-47.36,1.94-.85,3.92-1.66,5.77-2.68Z"/>
    <path class="cls-27" d="M116.16,228.96c.19,2.17.07,5.57.82,7.52.19,3.82.93,8.84-.08,12.5l-.78-1.06c-3.62.68-15.92,17.24-18.13,20.46-2.46,3.59-4.48,7.13-6.04,11.19-.35-1.25-.62-2.53-.8-3.82-.18-1.29-.28-2.59-.3-3.89-.26-15.57,11.99-24.49,21.74-34.53,2.81-2.89,3.62-4.2,3.57-8.39Z"/>
    <path class="cls-17" d="M91.95,279.58c1.56-4.06,3.58-7.61,6.04-11.19,2.2-3.22,14.51-19.79,18.13-20.46l.78,1.06c-1.45,7.57-4.23,13.77-7.24,20.83-5.15,12.07-2.71,23.44-1.86,36.06-4.29-1.38-8.47-3.04-12.67-4.66-1.05-7.21-2.35-14.39-3.18-21.62Z"/>
    <path class="cls-34" d="M100.34,60.52c2.82-7.04,5.21-14.32,7.51-21.55,1.47-4.64,2.66-9.8,4.86-14.14,1.24-2.44,2.76-3.64,5.39-4.42,12.84-3.81,26.45,6.99,38.32,7.52,12.67.57,27.96-11.35,40.67-4.79,5.83,5.3,11.46,28.88,15.21,37.39.65,1.26,1.25,2.7,2.01,3.89,1.12,3.1,4.55,10.4,3.4,13.63-1.1,3.1-6.38,4.78-9.23,5.59-18.84,5.33-38.03,5.86-57.45,6.01-13.01-.42-26.02-1.58-38.66-4.88-4.94-1.29-14.57-3.77-17.08-8.69-.81-1.59,3.09-9.64,3.94-11.66l1.1-3.91Z"/>
    <path class="cls-9" d="M197.09,23.15c5.83,5.3,11.46,28.88,15.21,37.39-19.92,7.95-45.07,8.81-66.35,7.85-3.56-.16-8.28-.01-11.7-.89-.19-.05-.35-.17-.53-.26,5.37.02,11.62-.75,16.73-2.41,4.28-1.39,8.12-3.74,10.16-7.9,3.35-6.83.78-15.04-1.36-21.83,6.09-2.64,12.29-4.95,18.61-6.95s12.73-3.67,19.23-5Z"/>
    <path class="cls-4" d="M212.31,60.54c.65,1.26,1.25,2.7,2.01,3.89,1.12,3.1,4.55,10.4,3.4,13.63-1.1,3.1-6.38,4.78-9.23,5.59-18.84,5.33-38.03,5.86-57.45,6.01-13.01-.42-26.02-1.58-38.66-4.88-4.94-1.29-14.57-3.77-17.08-8.69-.81-1.59,3.09-9.64,3.94-11.66l1.1-3.91c10.64,3.22,22.21,6.36,33.38,6.72.18.09.34.21.53.26,3.43.88,8.15.73,11.7.89,21.28.96,46.43.11,66.35-7.85Z"/>
    <path class="cls-32" d="M85.01,112.96c5.72.71,32.85,1.82,35.65,3.24,7.78,2.05,17.66.95,25.71.87,10.26-.05,20.53-.18,30.79-.4l.35.92c3.55-.46,7.11-.54,10.09,1.83,1.01.8,2.11,2.13,2.36,3.42.03.14.02.29.03.43l.36.77c4.8,10.08,10.87,14.11,7.79,26.95,1.92,1.28,3.51,2.31,4.05,4.68.43,1.88-.33,4.32-1.35,5.9-.18.28-.39.53-.59.8.93,3.43-2.04,8.61-3.76,11.62-6.02,10.55-17.06,18.81-28.76,21.88-5.37,1.41-11.59,2.45-17.14,1.81l-1.39-.07-3.23-.23-1.84-.16c-.06,2.19.17,4.44-1.08,6.34-2.59-1.57-4.7-2.29-7.73-2.6-3.22-1.3-7.11-1.72-10.48-2.9-11.76-4.1-22.35-12.41-29.43-22.65-3.18-4.61-5.36-9.76-7.29-14.99-5.95-16.15-6.29-30.61-3.09-47.48Z"/>
    <path class="cls-30" d="M113.6,151.04c2.25-1.81,4.71-3.91,7.79-3.7,2.26.15,3.96,1.66,5.33,3.35.17.21.33.42.49.63-4.35-1.05-7.09-1.81-11.27.31l-2.34-.59Z"/>
    <path class="cls-26" d="M177.5,117.59c3.55-.46,7.11-.54,10.09,1.83,1.01.8,2.11,2.13,2.36,3.42.03.14.02.29.03.43-5.11-1.25-11.17-1.11-15.95-3.03l-.3-.75c.97-1.21,2.38-1.46,3.79-1.91Z"/>
    <path class="cls-40" d="M106.12,145.51c-.03,1.68.35,4.48-.52,5.86-1.12-.87-1.49-1.32-2.93-1.5-.83.73-1.68,1.42-2.55,2.11-.87.09-1.23.31-2.01-.2-1.23-.81-1.8-2.01-2.11-3.4-.45-2.01-.15-3.54.93-5.25,1.34-.8,1.6-.85,3.17-.88l.34.51c-.54.95-.95,1.77-1.25,2.82,1.66,1.32,3.42,1.31,5.5,1.23l.46-1.22.98-.08Z"/>
    <path class="cls-6" d="M130.3,117.69c5.56-.38,8.69.37,13.41,3.39-3.75.13-7.51.3-11.26.51-3.44.29-7.19,2.18-10.52,1.81l-.31-.89c.23-.56.43-1.11.81-1.61,1.71-2.27,5.3-2.8,7.88-3.22Z"/>
    <path class="cls-19" d="M113.6,151.04l2.34.59c-1.26,1.76-2.54,3.17-2.2,5.45.12.83.45,1.37,1.15,1.89,2.4,1.78,7.83,1.26,10.49.51,1.47-.41,2.64-1.13,3.93-1.89.33-.19.67-.38,1-.57.89.33,2.08.25,3.02.29-.12.32-.19.65-.35.95-1.52,2.82-6.95,4.41-9.85,4.75-3.51.4-8.33.06-11.12-2.39-1-.88-1.59-2.07-1.6-3.4-.02-2.7,1.43-4.3,3.18-6.17Z"/>
    <path class="cls-10" d="M175.03,171.95c-.6,2.57-3.02,4.43-5.2,5.73-4.39,2.62-9.23,3.17-14.22,3.15-7.91-.79-11.75-3.43-16.89-9.23,3.78,2.41,7.56,4.68,11.98,5.72,8.8,2.07,16.88-.87,24.32-5.37Z"/>
    <path class="cls-43" d="M115.94,151.63c4.17-2.12,6.92-1.36,11.27-.31,1.72.62,3.37.92,4.58,2.33-.1,1.51-.68,2.11-1.48,3.37-.33.19-.67.37-1,.57-1.3.76-2.47,1.48-3.93,1.89-2.66.75-8.09,1.28-10.49-.51-.69-.51-1.02-1.06-1.15-1.89-.34-2.29.94-3.69,2.2-5.45Z"/>
    <path class="cls-16" d="M156.93,148.42c1.08-5,1.56-9.81,1.84-14.9.73,2.65,1.43,5.37,2.5,7.9,1.78,4.23,7.69,12.57,5.18,17.16-1.34,2.44-4.86,3.81-7.44,4.25-2.24.38-4.09.54-6.12-.67l.36-.63c2.07-.55,4.02-1.28,6.01-2.1-.82-1.84-2.44-2.95-3.96-4.21.43-2.32.8-4.59,1.63-6.81Z"/>
    <path class="cls-24" d="M156.93,148.42c.14-.1.28-.19.41-.3.81-.67,1.41-1.51,2.05-2.33,1.22,1.29,1.67,4.04,2.35,5.73.62,1.54,1.46,3.87.98,5.53-.34,1.16-2.42,1.94-3.46,2.39-.82-1.84-2.44-2.95-3.96-4.21.43-2.32.8-4.59,1.63-6.81Z"/>
    <path class="cls-12" d="M177.59,133.64c1-1.1,1.51-.08,2.36-1.57l-.34-.91c1.27-1.05,2.7-2.14,4.46-2.12,1.47.02,2.66.99,3.47,2.13,1.76,2.48,2,5.9,1.35,8.79-.51,2.25-2.11,5.19-4.28,6.24-1.44.69-2.77.75-4.23.09-2.28-1.02-4.51-3.69-5.29-6.05-.37-1.12-.4-2.02-.21-3.19.25-.27.6-.78.95-.88l1.77-2.53Z"/>
    <path class="cls-7" d="M177.59,133.64c.98.74,1.61,1.11,1.7,2.49.08,1.21-.44,1.65-1.21,2.4-.95-.14-.92.07-1.54-.78-.65-.9-.45-.51-.72-1.57l1.77-2.53Z"/>
    <path class="cls-7" d="M183.17,131.35c1.59.18,2.52.29,3.72,1.4.33,1.44.17,1.68-.34,3.09-1.29-.29-2.1-.59-3.2-1.32-.58-1.36-.43-1.69-.18-3.17Z"/>
    <path class="cls-22" d="M130.84,129.63c.94-.09,1.88-.19,2.82-.13,2.2.14,4.21,1.21,5.6,2.92,1.48,1.8,2.07,4.2,1.73,6.5-.46,3.16-2.1,5.05-4.57,6.9-1.1.3-2.21.61-3.36.57-1.72-.06-3.31-.87-4.46-2.14-1.75-1.94-2.28-4.67-2.01-7.2.35-3.32,1.63-5.4,4.23-7.41Z"/>
    <path class="cls-7" d="M130.85,130.81c.22,0,.44-.01.65,0,1.68.06,2.3.41,3.37,1.6.35,1.6.07,2.49-.42,3.99-.14,0-.28,0-.41-.02-1.63-.18-2.6-.47-3.7-1.7-.32-1.74-.05-2.23.52-3.86Z"/>
    <path class="cls-24" d="M183.84,155.72l.65-.44c4.2-2.83,8.39-5.35,13.64-4.27,1.92,1.28,3.51,2.31,4.05,4.68.43,1.88-.33,4.32-1.35,5.9-.18.28-.39.53-.59.8.93,3.43-2.04,8.61-3.76,11.62-6.02,10.55-17.06,18.81-28.76,21.88-5.37,1.41-11.59,2.45-17.14,1.81,2.94.04,4.3-1.01,6.5-2.8,2.54-2.07,0-1.88.54-3.71.33-1.11,1.58-.79,1.77-2.51-1.14-.76-2.79-1.42-3.77-2.32-2.5-2.29.3-3.17,0-5.52,4.99.02,9.83-.53,14.22-3.15,2.18-1.3,4.59-3.16,5.2-5.73,2.25-4.07,5.13-13.92,8.81-16.23Z"/>
    <path class="cls-43" d="M183.84,155.72l.65-.44c4.2-2.83,8.39-5.35,13.64-4.27,1.92,1.28,3.51,2.31,4.05,4.68.43,1.88-.33,4.32-1.35,5.9-.18.28-.39.53-.59.8-1.28.32-2.56.6-3.85.85-3.12.57-7.12.56-9.76-1.45-2.11-1.6-2.51-3.56-2.78-6.07Z"/>
    <path class="cls-39" d="M85.01,112.96c5.72.71,32.85,1.82,35.65,3.24-3.67,7.88-8.99,15-12.44,22.94-.9,2.06-1.38,4.25-2.11,6.37l-.98.08c-.03-.31-.05-.62-.08-.92-.29-2.46-2.49-6.18-4.59-7.55-1.48-.97-2.87-1.24-4.57-.71-2.38.73-4.32,3.38-5.23,5.57-1.5,3.6-1.12,7.95.53,11.43,1.54,3.24,4.22,5.24,7.62,6.24,2.59.76,5.5.66,8.17.46,4.45,13.93,11.73,25.91,25.1,32.83,1.9.96,3.86,1.81,5.87,2.53,2.01.72,4.06,1.31,6.14,1.78-.06,2.19.17,4.44-1.08,6.34-2.59-1.57-4.7-2.29-7.73-2.6-3.22-1.3-7.11-1.72-10.48-2.9-11.76-4.1-22.35-12.41-29.43-22.65-3.18-4.61-5.36-9.76-7.29-14.99-5.95-16.15-6.29-30.61-3.09-47.48Z"/>
    <path class="cls-34" d="M214.32,64.42c18.92,1.97,61.18,6.97,73.09,22.36.83,1.08,1.46,2.32,2.07,3.53.21,2.52.27,3.96-1.44,6-6.94,8.31-29.4,11.93-40.19,13.47-3.76.54-9.25.51-12.67,1.98-.82.36-.7.94-.91,1.74l-.58-1.76c-4.21-.42-34.91,2.22-37.98,3.68-6.2.21-12.36,1.03-18.56,1.26-10.26.21-20.52.35-30.79.4-8.05.08-17.93,1.18-25.71-.87-2.8-1.42-29.93-2.53-35.65-3.24-16.63-1.62-41.41-4.58-55.34-13.53-3.33-2.14-5.14-3.98-5.98-7.87.5-1.47,1.14-2.85,2.07-4.11,10.37-14.02,56.32-20.8,73.47-23.02-.85,2.01-4.75,10.07-3.94,11.66,2.51,4.91,12.14,7.4,17.08,8.69,12.64,3.3,25.65,4.46,38.66,4.88,19.42-.16,38.61-.68,57.45-6.01,2.85-.81,8.13-2.5,9.23-5.59,1.15-3.24-2.28-10.53-3.4-13.63Z"/>
    <path class="cls-15" d="M289.48,90.31c.21,2.52.27,3.96-1.44,6-6.94,8.31-29.4,11.93-40.19,13.47-3.76.54-9.25.51-12.67,1.98-.82.36-.7.94-.91,1.74l-.58-1.76c-4.21-.42-34.91,2.22-37.98,3.68-6.2.21-12.36,1.03-18.56,1.26-10.26.21-20.52.35-30.79.4-8.05.08-17.93,1.18-25.71-.87-2.8-1.42-29.93-2.53-35.65-3.24-16.63-1.62-41.41-4.58-55.34-13.53-3.33-2.14-5.14-3.98-5.98-7.87,27.86,19.24,112.92,18.32,148.3,17.53,8.25.21,16.66-.33,24.91-.68,24.52-1.02,58.69-2.62,81.55-11.54,4.2-1.64,7.6-3.6,11.02-6.57Z"/>
    <path class="cls-9" d="M214.32,64.42c18.92,1.97,61.18,6.97,73.09,22.36.83,1.08,1.46,2.32,2.07,3.53-3.43,2.96-6.82,4.93-11.02,6.57-22.86,8.92-57.03,10.52-81.55,11.54-8.25.34-16.66.89-24.91.68,4.58-1.58,8.7-4.56,11.87-8.16-8.28-3.74-17.95-8.72-26.81-10.64-1.9-.41-4.07-.41-6.02-.63,19.42-.16,38.61-.68,57.45-6.01,2.85-.81,8.13-2.5,9.23-5.59,1.15-3.24-2.28-10.53-3.4-13.63Z"/>
    <path class="cls-28" d="M175.92,210.62c.36-1.07.76-1.95,1.33-2.92l.84.03c4.72,2.37,11.2,3.41,16.41,4.01,1.49.41,3.38.69,4.3,2.07.31.47.39.72.59,1.22,1.01.68,2.22,1.34,3.11,2.15,12.69,2.86,26.21,5.9,38.09,11.33l-.3.94c.99,1.52,1.01,1.94,1.14,3.68-1.09,5.02-6.45,21.62-9.14,25.45v1.36s.18.44.18.44c3.31,4.52,4.57,9.38,5.57,14.79l1.76,16.62-4.67,2.67c-4.43,2.78-9.5,4.81-14.3,6.86l-5.71,2.12c-15.32,6.1-39.87,9.53-56.31,9.67-16.86.1-34.93-1.86-50.99-7.23-.85-12.62-3.29-23.98,1.86-36.06,3.01-7.06,5.79-13.25,7.24-20.83,1.01-3.66.27-8.69.08-12.5,2.78,4.66,5.12,8.69,10.74,10.09,1.98.49,6.01,1.46,7.8.64l.25-.47c-.01-4.41-.19-8.76-.91-13.12,1.9.01,3.65.01,5.52-.37l2.07-.04c6.68.03,25.23-.63,30.49.77l2.4-.12,4.38.54.34-.3-1.59-1.26c-.81-2.06-.45-4.39-.35-6.56l-.23-.39c-.12-.21-.23-.42-.35-.63-1.47-2.47-1.45-5.14-1.88-7.94-.13-2.13-.01-4.3.02-6.43l.24-.26Z"/>
    <path class="cls-38" d="M175.92,210.62c.36-1.07.76-1.95,1.33-2.92l.84.03c4.72,2.37,11.2,3.41,16.41,4.01-.14.25-.28.49-.41.75-2.77,5.61,5.63,21.98-4.47,25.96-2.25.89-5.82,1.62-8.11.75-.72-.66-1.43-1.3-2.1-2.02l.32-2.79.34-.3-1.59-1.26c-.81-2.06-.45-4.39-.35-6.56l-.23-.39c-.12-.21-.23-.42-.35-.63-1.47-2.47-1.45-5.14-1.88-7.94-.13-2.13-.01-4.3.02-6.43l.24-.26Z"/>
    <path class="cls-33" d="M178.96,220.19c.62,4.58,1.45,9.28,1.11,13.91l-1.59-1.26c-.81-2.06-.45-4.39-.35-6.56.03-2.09-.18-4.2.84-6.09Z"/>
    <path class="cls-28" d="M175.92,210.62c.36-1.07.76-1.95,1.33-2.92l.84.03c.75,3.78,1.11,8.6.87,12.45-1.02,1.88-.81,4-.84,6.09l-.23-.39c-.12-.21-.23-.42-.35-.63-1.47-2.47-1.45-5.14-1.88-7.94-.13-2.13-.01-4.3.02-6.43l.24-.26Z"/>
    <path class="cls-37" d="M199.38,215.03c1.01.68,2.22,1.34,3.11,2.15,12.69,2.86,26.21,5.9,38.09,11.33l-.3.94c.99,1.52,1.01,1.94,1.14,3.68-1.09,5.02-6.45,21.62-9.14,25.45v1.36s.18.44.18.44c3.31,4.52,4.57,9.38,5.57,14.79l1.76,16.62-4.67,2.67c-4.43,2.78-9.5,4.81-14.3,6.86l-5.71,2.12c.87-8.77-.91-17.58-3.48-25.91-4.44-9.79-11.31-20.51-12.16-31.33.87-10.16.18-20.96-.08-31.16Z"/>
    <path class="cls-27" d="M232.47,260.36c3.31,4.52,4.57,9.38,5.57,14.79l1.76,16.62-4.67,2.67c-.2-.72-.18-.47-.19-1.13,0-11.02-2.16-21.9-2.47-32.95Z"/>
    <path class="cls-17" d="M199.46,246.19c5.81,4.66,14.45,20.42,17.11,27.58-1.68,1.21-3.38,2.39-4.95,3.75-4.44-9.79-11.31-20.51-12.16-31.33Z"/>
    <path class="cls-5" d="M202.5,217.18c12.69,2.86,26.21,5.9,38.09,11.33l-.3.94c.99,1.52,1.01,1.94,1.14,3.68-1.09,5.02-6.45,21.62-9.14,25.45v1.36c-4.93-6.95-8.76-14.76-13.57-21.85-4.95-7.28-10.9-13.89-16.22-20.9Z"/>
    <path class="cls-13" d="M240.29,229.44c.99,1.52,1.01,1.94,1.14,3.68-1.09,5.02-6.45,21.62-9.14,25.45-2.5-8.45,4.82-21.45,8-29.13Z"/>
    <path class="cls-35" d="M140.39,233.25l2.07-.04c6.68.03,25.23-.63,30.49.77l2.4-.12,4.38.54-.32,2.79c-1.4,5-1.28,10.33-1.36,15.49l-5.49-.14c-2.62,2.78-2.52,6.37-6.56,7.52,1.53,1.72,3.85,2,5.24,3.44,4.99,3.96,8.57,8.85,9.31,15.35.65,5.64-.66,11.85-4.23,16.35-3,3.78-7.41,6.05-12.2,6.53-2.38.22-4.75.18-7.12-.1.77.34,1.48.36,1.76,1.22.94,2.87.09,7.19.02,10.25-16.86.1-34.93-1.86-50.99-7.23-.85-12.62-3.29-23.98,1.86-36.06,3.01-7.06,5.79-13.25,7.24-20.83,1.01-3.66.27-8.69.08-12.5,2.78,4.66,5.12,8.69,10.74,10.09,1.98.49,6.01,1.46,7.8.64l.25-.47c-.01-4.41-.19-8.76-.91-13.12,1.9.01,3.65.01,5.52-.37Z"/>
    <path class="cls-42" d="M145.34,264.75c.05-.88.1-1.71.41-2.54.73-1.95,2.54-2.66,4.28-3.47l2.48,2.35c-2.65.86-4.96,1.95-7.17,3.67Z"/>
    <path class="cls-33" d="M150.03,258.73c4.88-1.2,11.54-1.25,15.98,1.32,1.53,1.72,3.85,2,5.24,3.44l-2.03,1.24c-5.36-3.28-10.39-5.02-16.71-3.66l-2.48-2.35Z"/>
    <path class="cls-35" d="M140.39,233.25l2.07-.04c6.68.03,25.23-.63,30.49.77l2.4-.12,4.38.54-.32,2.79c-1.4,5-1.28,10.33-1.36,15.49l-5.49-.14c-12.02-.88-24.3.14-36.37.07l-.42-5.86c-.01-4.41-.19-8.76-.91-13.12,1.9.01,3.65.01,5.52-.37Z"/>
    <path class="cls-18" d="M140.39,233.25l2.07-.04-.36.73c-1.17.77-2.46,1.26-2.89,2.68-1.09,3.55-.26,8.77-.42,12.55,12.13-.17,24.26-.2,36.39-.09,0-4.03.37-8.42-.31-12.39-1.06-.75-1.79-.91-2.12-2.22l.22-.5,2.4-.12,4.38.54-.32,2.79c-1.4,5-1.28,10.33-1.36,15.49l-5.49-.14c-12.02-.88-24.3.14-36.37.07l-.42-5.86c-.01-4.41-.19-8.76-.91-13.12,1.9.01,3.65.01,5.52-.37Z"/>
    <path class="cls-23" d="M152.52,261.08c6.32-1.36,11.35.37,16.71,3.66l2.03-1.24c4.99,3.96,8.57,8.85,9.31,15.35.65,5.64-.66,11.85-4.23,16.35-3,3.78-7.41,6.05-12.2,6.53-2.38.22-4.75.18-7.12-.1-2.35-.33-4.78-1.03-6.95-2.01-3.58-1.63-5.58-3.91-6.86-7.57-.02-.07-.03-.14-.07-.2-2.36-4.09-4.38-7.9-4.55-12.77-.19-5.78,2.86-10.36,6.75-14.33,2.21-1.73,4.52-2.81,7.17-3.67Z"/>
  </g>
</svg>